<svg width="44" height="45" viewBox="0 0 44 45" fill="none" xmlns="http://www.w3.org/2000/svg">
<path d="M30.7938 26.4944C30.2735 25.5981 29.5 23.0622 29.5 19.75C29.5 17.7609 28.7098 15.8532 27.3033 14.4467C25.8968 13.0402 23.9891 12.25 22 12.25C20.0109 12.25 18.1032 13.0402 16.6967 14.4467C15.2902 15.8532 14.5 17.7609 14.5 19.75C14.5 23.0631 13.7256 25.5981 13.2053 26.4944C13.0725 26.7222 13.002 26.9811 13.0011 27.2449C13.0002 27.5086 13.0689 27.768 13.2002 27.9967C13.3315 28.2255 13.5208 28.4156 13.749 28.5478C13.9772 28.6801 14.2362 28.7498 14.5 28.75H18.3259C18.499 29.5967 18.9592 30.3577 19.6286 30.9042C20.2981 31.4507 21.1358 31.7492 22 31.7492C22.8642 31.7492 23.7019 31.4507 24.3714 30.9042C25.0409 30.3577 25.501 29.5967 25.6741 28.75H29.5C29.7637 28.7497 30.0226 28.6798 30.2507 28.5475C30.4788 28.4152 30.668 28.225 30.7992 27.9963C30.9303 27.7676 30.9989 27.5083 30.998 27.2446C30.997 26.9809 30.9266 26.7222 30.7938 26.4944ZM22 30.25C21.5348 30.2499 21.0812 30.1055 20.7014 29.8369C20.3216 29.5683 20.0344 29.1886 19.8794 28.75H24.1206C23.9656 29.1886 23.6784 29.5683 23.2986 29.8369C22.9189 30.1055 22.4652 30.2499 22 30.25ZM14.5 27.25C15.2219 26.0088 16 23.1325 16 19.75C16 18.1587 16.6322 16.6326 17.7574 15.5074C18.8826 14.3821 20.4087 13.75 22 13.75C23.5913 13.75 25.1174 14.3821 26.2427 15.5074C27.3679 16.6326 28 18.1587 28 19.75C28 23.1297 28.7763 26.0059 29.5 27.25H14.5Z" fill="#181823"/>
<rect x="0.5" y="0.795815" width="43" height="43" rx="21.5" stroke="#C9C9DA"/>
</svg>
