<svg width="19" height="19" viewBox="0 0 19 19" fill="none" xmlns="http://www.w3.org/2000/svg">
<rect y="0.00012207" width="19" height="19" rx="4" fill="#537FE7"/>
<path d="M7.99336 12.9116L7.89763 13.1425C7.82555 13.1126 7.76007 13.0688 7.70492 13.0136M7.99336 12.9116L7.8818 12.837M7.99336 12.9116L7.89763 13.1425C7.96971 13.1724 8.04697 13.1878 8.125 13.1878C8.20303 13.1878 8.28029 13.1724 8.35237 13.1425L8.25664 12.9116C8.29837 12.8943 8.33628 12.8689 8.3682 12.837L8.54498 13.0137L8.54508 13.0136L14.045 7.51374C14.1564 7.40235 14.2189 7.25128 14.2189 7.09376C14.2189 6.93623 14.1564 6.78516 14.045 6.67378C13.9336 6.56239 13.7825 6.49982 13.625 6.49982C13.4675 6.49982 13.3164 6.56239 13.205 6.67378L13.205 6.67379L8.12501 11.7542M7.99336 12.9116L8.125 12.1078L8.30177 11.931L8.12501 11.7542M7.70492 13.0136L7.8818 12.837M7.70492 13.0136L7.70502 13.0137L7.8818 12.837M7.70492 13.0136L5.29877 10.6075C5.18738 10.4961 5.12481 10.345 5.12481 10.1875C5.12481 10.03 5.18738 9.87891 5.29877 9.76753C5.41016 9.65614 5.56123 9.59357 5.71875 9.59357C5.87627 9.59357 6.02734 9.65614 6.13873 9.76753L6.13875 9.76755L8.12501 11.7542M7.8818 12.837L5.47555 10.4307C5.41105 10.3662 5.37481 10.2787 5.37481 10.1875C5.37481 10.0963 5.41105 10.0088 5.47555 9.9443C5.54005 9.8798 5.62753 9.84357 5.71875 9.84357C5.80997 9.84357 5.89745 9.8798 5.96195 9.9443L7.94824 11.931L8.12501 11.7542" fill="white" stroke="white" stroke-width="0.5"/>
</svg>
